<svg xmlns="http://www.w3.org/2000/svg" width="398.678" height="398.678" viewBox="0 0 398.678 398.678">
  <g id="EMenuNow_Symbol_v2.0" transform="translate(105.565 122.181) rotate(-25)" opacity="0.03">
    <path id="Path_49" data-name="Path 49" d="M0,291.6V8.4A8.425,8.425,0,0,1,8.4,0H291.6A8.425,8.425,0,0,1,300,8.4V291.6a8.425,8.425,0,0,1-8.4,8.4H8.4A8.425,8.425,0,0,1,0,291.6Z" transform="translate(-97.62 -40.44)" fill="none"/>
    <g id="Group_10" data-name="Group 10" transform="translate(0 151.538)">
      <g id="Group_9" data-name="Group 9">
        <g id="Group_8" data-name="Group 8">
          <g id="Group_7" data-name="Group 7">
            <g id="Group_6" data-name="Group 6">
              <path id="Path_50" data-name="Path 50" d="M259.96,320.405s-27.84,15.06-33.24,18.66a38.7,38.7,0,0,0-5.4,4.38,7.466,7.466,0,0,0-4.86-1.92h-6.72a7.321,7.321,0,0,0-4.68,1.8,40.724,40.724,0,0,0-5.22-4.26c-5.4-3.66-33.24-18.66-33.24-18.66a2.5,2.5,0,0,0-3.9,2.04v59.76a2.487,2.487,0,0,0,3.9,2.04s28.44-15.78,33.96-19.5a37.046,37.046,0,0,0,4.44-3.48,7.321,7.321,0,0,0,4.68,1.8h6.72a7.5,7.5,0,0,0,4.92-1.92,48.035,48.035,0,0,0,4.62,3.6c5.52,3.72,33.96,19.5,33.96,19.5a2.5,2.5,0,0,0,3.9-2.04v-59.76A2.452,2.452,0,0,0,259.96,320.405Zm-41.7,33.36a4.178,4.178,0,0,1-.3,1.5v.06a3.966,3.966,0,0,1-.84,1.2,3.809,3.809,0,0,1-2.52,1.02h-2.88a3.936,3.936,0,0,1-2.28-.84,3.305,3.305,0,0,1-1.02-1.2l-.06-.06a3.606,3.606,0,0,1-.42-1.62v-2.88a3.322,3.322,0,0,1,.36-1.56l.06-.06a3.876,3.876,0,0,1,3.3-2.1h2.88a3.625,3.625,0,0,1,2.58,1.08,4.311,4.311,0,0,1,.84,1.2h0a3.863,3.863,0,0,1,.3,1.44v2.82Z" transform="translate(-162.7 -319.963)" fill="#4faac1"/>
            </g>
          </g>
        </g>
      </g>
    </g>
    <path id="Path_51" data-name="Path 51" d="M265.86,180.92c-10.2,20.76-31.32,43.38-65.22,39.48-25.26-2.88-36.54-19.98-36.54-34.98,0-20.88,13.92-42.12,36.78-51.48a28.54,28.54,0,0,1-12.12-23.82c0-20.46,18.06-42.72,43.5-42.72,15.72,0,28.44,8.52,28.44,24.84,0,11.94-6.78,20.64-14.7,20.64-3.36,0-6.54-1.62-9.36-5.34,4.98-1.8,11.52-7.92,11.52-18.3,0-11.7-7.38-14.28-13.32-14.28-11.94,0-27.42,11.7-27.42,34.2,0,10.74,3.18,22.08,15.9,24.66-23.46,4.98-35.7,25.62-36,46.08-.18,13.44,7.98,23.52,25.02,24.84,16.02,1.2,31.68-10.5,41.94-23.64Z" transform="translate(-163.26 -67.4)" fill="#4faac1"/>
  </g>
</svg>
