<?xml version="1.0" encoding="utf-8"?>
<!-- Generator: Adobe Illustrator 25.2.3, SVG Export Plug-In . SVG Version: 6.00 Build 0)  -->
<svg version="1.1" id="Layer_1" xmlns="http://www.w3.org/2000/svg" xmlns:xlink="http://www.w3.org/1999/xlink" x="0px" y="0px"
	 viewBox="0 0 800 215.2" style="enable-background:new 0 0 800 215.2;" xml:space="preserve">
<style type="text/css">
	.st0{fill:#FFFFFF;}
	.st1{fill:#4FAAC1;}
	.st2{fill:#1D1D1B;}
</style>
<g>
	<path class="st1" d="M665.9,167.2c0,0-19.7,10.6-23.5,13.2c-1.5,1-2.8,2.1-3.8,3.1c-0.9-0.8-2.1-1.4-3.5-1.4h-4.8
		c-1.3,0-2.4,0.5-3.3,1.3c-1-1-2.2-2-3.7-3c-3.8-2.6-23.5-13.2-23.5-13.2c-1.2-0.8-2.7,0-2.7,1.5v42.3c0,1.4,1.6,2.2,2.7,1.5
		c0,0,20.1-11.1,24-13.8c1.3-0.8,2.3-1.7,3.2-2.5c0.9,0.8,2,1.3,3.3,1.3h4.8c1.3,0,2.5-0.5,3.5-1.4c0.9,0.8,2,1.7,3.3,2.6
		c3.9,2.6,24,13.8,24,13.8c1.2,0.8,2.7,0,2.7-1.5v-42.3C668.6,167.2,667.1,166.4,665.9,167.2z M633.8,193.4h-2
		c-0.6,0-1.2-0.2-1.6-0.6l0,0c-0.3-0.2-0.5-0.5-0.7-0.8c0,0,0,0,0-0.1c-0.2-0.3-0.3-0.7-0.3-1.1v-2c0-0.4,0.1-0.8,0.3-1.1
		c0,0,0,0,0,0c0.2-0.3,0.4-0.6,0.7-0.8c0.5-0.4,1-0.6,1.7-0.6h2c0.7,0,1.4,0.3,1.8,0.8l0,0c0.2,0.2,0.4,0.5,0.6,0.8c0,0,0,0,0,0
		c0.1,0.3,0.2,0.7,0.2,1v2c0,0.4-0.1,0.7-0.2,1.1c0,0,0,0,0,0c-0.1,0.3-0.4,0.6-0.6,0.8l0,0C635.1,193.2,634.4,193.4,633.8,193.4z"
		/>
	<g>
		<path class="st0" d="M461.6,70.1h-19.9l-13.4,63.2c-2.8,13.6-12.4,21.4-19.9,21.4c-4.9,0-8.9-3.5-8.9-11.2c0-2,0.2-4.1,0.8-6.5
			l14.4-66.9h-19.9l-13.4,63.2c-0.1,0.3-0.1,0.5-0.2,0.8c-6,13.6-12,20.7-18.1,20.7c-4.7,0-5.9-4.1-5.9-9.6
			c0-15.7,9.4-36.2,9.4-53.7c0-12-4.3-22.2-20.3-22.2c-6.9,0-16.5,2-26.8,15.7l3.1-14.8H303l-13.5,63.6c-10.2,15-23,21-35.3,21
			c-12.6,0-17.1-6.1-17.1-19.5c0-2,0-3.9,0.2-6.1c30.5-3.1,49.2-17.7,49.2-39.7c0-16.1-10.2-20.3-21.1-20.3
			c-36.2,0-49.8,46.8-49.8,69.1c0,22.6,14,31.5,29.1,31.5c15.8,0,31-9.7,41.9-22.6l-4.5,21.4h19.7l13.6-63.4
			c6.5-14.2,13.6-21.1,21.8-21.1c6.7,0,8.7,4.3,8.7,10.8c0,14-9.4,35.2-9.4,52.5c0,12.6,5.3,22.2,18.9,22.2
			c6.4,0,15.7-2.1,25.7-19.3c2.4,12.1,11,19.3,21,19.3c8.9,0,18.9-5.7,26.4-18.9c1,13.4,7.3,18.9,15.7,18.9
			c7.1,0,12.4-3.7,15.5-16.1c-2.6,1-4.5,1.2-6.3,1.2c-5.3,0-6.9-3.7-6.9-9.2c0-2.6,0.2-5.5,0.8-8.5L461.6,70.1z M267.2,78.8
			c6.3,0,7.3,4.1,7.3,8.7c0,17.7-14.4,30.7-36.2,34C241.9,101.2,252.7,78.8,267.2,78.8z"/>
		<path class="st0" d="M591,21.4l-27.3,124.7l-27-122.4c-4.1-2-8.7-2.8-13.2-2.8c-29.7,0-54.9,27.5-54.9,51.2
			c0,14.2,6.7,19.1,19.1,19.1c-2-2.6-4.7-5.9-4.7-15c0-24,12.4-38.2,31.5-43.7l-30.9,136h14.8l24.4-106l24.8,106h25.2l33.4-147.2
			H591z"/>
		<path class="st0" d="M786.1,66.6c-6.5,0-10,6.1-10,11.4c0,4.5,2.2,8.5,5.9,8.5c1.6,0,5.1,0,6.9-1.6c0,20.5-11,69.8-33.1,69.8
			c-5.9,0-8.5-4.7-8.5-11.2c0-2,0.2-4.1,0.8-6.5l14.2-66.9h-19.7l-13.4,63.2c-2.8,13.6-12.4,21.4-19.9,21.4c-4.9,0-8.9-3.5-8.9-11.2
			c0-2,0.2-4.1,0.8-6.5l14.4-66.9h-19.9l-5.7,26.7c-5.7,2.2-11.6,3.4-17.9,3.4c-0.2-20.1-6.7-31.1-22.2-31.1
			c-40.5,0-51.5,46.8-51.5,69.5c0,22.4,13.6,31.1,30.7,31.1c24.2,0,40.3-25.8,42.7-59.8c5.8-0.7,11.4-2.1,16.5-4.1l-5.8,27.6
			c-0.8,3.5-1.2,6.9-1.2,10c0,16.3,9.8,26.4,21.6,26.4c8.5,0,17.7-5.1,25.2-16.7c2.2,11.2,10.8,16.7,23.6,16.7
			c27.2,0,46.8-51.7,46.8-86.4C798.5,72.7,794.6,66.6,786.1,66.6z M662.2,110.5c-2.8,27.7-13.8,44.3-25.6,44.3
			c-12.2,0-16.5-6.1-16.5-19.7c0-19.7,11-55.1,30.9-55.1c6.5,0,10.8,3.1,11.8,12.4c-4.9,0.6-8.5,3.3-8.5,10
			C654.3,107.1,655.7,110.5,662.2,110.5z"/>
		<path class="st0" d="M144.7,138l5.1-114.3c-3.1-2-7.3-2.8-11.6-2.8c-1.9,0-3.8,0.2-5.8,0.5l-4.9,12.9L90.9,133
			c-8,19.1-24.8,26.6-41.3,24.1c-15.2-2.2-24.6-13.9-24.9-25.4C24.2,111.4,37.1,90.9,60.3,86c-12.6-2.6-15.7-13.8-15.7-24.4
			c0-22.2,15.3-33.8,27.2-33.8c5.9,0,13.2,2.6,13.2,14.2c0,10.2-6.5,16.3-11.4,18.1c2.8,3.7,5.9,5.3,9.2,5.3
			c7.9,0,14.6-8.7,14.6-20.5c0-16.1-12.6-24.6-28.1-24.6C44,20.3,26,42.3,26,62.6c0,8.9,3.5,17.5,12,23.6
			c-22.6,9.2-36.4,30.3-36.4,51c0,18.5,11,34.1,36.2,34.6c29.3,0.6,50.7-4.5,63.4-34.9l0,0L127,67.8l-4.5,100.7h21.1l42.9-102.7
			l-14.6,102.7h22.4l20.7-144.8h-22.4L144.7,138z"/>
	</g>
</g>
</svg>
